/* XPM */
static char *f3d16d14eb964c48cb32ce8ff80a8368JdrRJ8cnR3rjJUxF[] = {
/* columns rows colors chars-per-pixel */
"42 42 22 1 ",
"  c #2B5D0A",
". c #2B5C0B",
"X c #2C5F0B",
"o c #2D5A0E",
"O c #2B5E0C",
"+ c #2E5E0D",
"@ c #2E5F0D",
"# c #2F5D0E",
"$ c #2F5D0F",
"% c #2C5E0E",
"& c #2D5D10",
"* c #2F5F10",
"= c #2C600B",
"- c #2C600C",
"; c #2D600C",
": c #2E630C",
"> c #2F630F",
", c #2E640D",
"< c #30630F",
"1 c #30650E",
"2 c #2F6010",
"3 c #306110",
/* pixels */
">>>>XX%%2->,22...-.-.&-31>%%%<=<1<XX>%<%=X",
"%%%X  >,,2,.->>-2o22>>,%>>>X%<%%%%> X<%<<%",
"%X%>=%>>, >.2-.-&..2>.,  <%X$X%%>><%%XX<<X",
">X>%1>>.>2  =,222&--.>%=X%X<%.X1X>XXX%%%<%",
"<X=<1<>%> >><<1=2>.>2-2>>2>2X$..%<X><<%%%%",
"X<<<<X%=>X >X%1%----2.3%.,  < >2<X>%<<X%<>",
"%<%=%X%1 %<<%#%%2-$--  %&2>X2..21%>XX%>%%.",
"%X%%%<XX>> 3#+>%--.2->..-->31>--%.>%<X>>1X",
"%X%%%X>%===%$> %%<1%%>.-->>%<>%%%>%%1> %>%",
"X<%%<X>%1%%<XX.<%%X%%&>..>>%%%>%3%%X%<X$%%",
"<X%1%<X<%<X<<$X%<XX%%%&.%>  3+$ <>> %%<%X%",
"XX%<%X<%X1=<%X%<X.33++2.11>X<<%%<%X%<<<<++",
"X.%X%%%<>X<%$.%X%<XX,.>->1>%<<X%<   %<X<3%",
"#%.X+%%%<X%X>.%$%%+X >2. . %%%%XX >><<%<3>",
"X<XX+33.X>X%><X%%1<<->=2.3%>%<<%<<<><<X%%%",
"XX<<+3$.<<XX%%X%%+%X2.-.,>X<X<<%%XX==%%<X$",
"XXX<<XX%<<%=o$$+X<X%>2>%=X%XX%%><X%>X%> > ",
"XX%<<1%%=X1%$%#X%X%%.-.,%%<<<><%%%1<%<o$ >",
"%>XX$%X<>=<%.X<<X%<<>.-2%+1XX>%X<XX>< >>2.",
">><%%X>%==%X%<X<<X=X2---1%<<X<<=%<%%$$>>-.",
" .%%%%<<>%<%%%%%=1%XX$--%X1XXX<X>2>X>%%>2-",
" >%%%><<<X<>%%%11%%X$ -1><%%1<%>-.>>>%..&-",
"X13,X%%<<%%X>>2&XX%<>&.3%%%X>X>X>.<X%%=>>%",
">X>>><X<XXX12---<<X%..23<<1%.<%Xo$ <X<22%%",
"1>%X>>%X .2,.>2-,- >..->%<<>%=>>>>.22->.X%",
"<%X><><%--2>2..>%. =->22>$%<%>XX-22-2-.%> ",
">XXX%%X%.2---22,%% 3232-X>%=<<%X--22=->>>.",
"%=%>%XXX2>.=----1%--,>.>%>%%X%%X-2->--2.o$",
"%%%X$>XX>..2 $$%XX>X.3>=2%o$<> X.2-. ,-..%",
">X<$$X<%>>2>. >X%1XX>>.>2.XX>>%%2>- =>,>2,",
"%X<X%XX%>=>->.XX<<<<>>=-=>%>>%< 2.--.2222 ",
"%X%<X<X< >>>2><%%%<X.-,2.>><%%>X.,>2-22--2",
"+%$$<%%<%..%X<<%.222-->>X %%>%>=>XX %<<<<X",
"<<>XX%%%%$$<%+X%..--.>X<X<>2%<1=X<X X<X<%%",
">2> XXX<<<X%=%<.> .>%>X12. .<XX1 >>>%%>X%X",
",%2.XX%%%%<X<X<<,>22>>X%>.>&%=%<=>,.%X<=<%",
">%<XX<%>X%>>%%+1-2>- ,>2>.22,><%>= 2-=>=<%",
"1%%<%<%%$<X<<X=3-1-.=,= >2.>.%%<>> >.,<%<+",
"<<%<<=<X.2<X%3%1222. >>>>--2>>%%>>> 2%%=%<",
"%%X%X%%<>2=313%%-2->>=->..2->< X==>>2.%%%X",
"<% X> $> >+%<<%<22-,2>&>>.>%X  >>>%>XX<<<>",
">=>>> >X%%%%%%$<.>&2,-.  >.>=>%.>3<%><XXXX"
};
