/* XPM */
static char *_cec2b76c0c94268a8bffb5c0715815aTTtuBwiKFVjxOu5S[] = {
/* columns rows colors chars-per-pixel */
"42 42 248 2 ",
"   c None",
".  c #180906",
"X  c #250D07",
"o  c #3A180B",
"O  c #2F150B",
"+  c #3D2E18",
"@  c #4B1C0B",
"#  c #431A0B",
"$  c #551C0D",
"%  c #4C230D",
"&  c #5C250D",
"*  c #56240E",
"=  c #492512",
"-  c #562914",
";  c #5C3916",
":  c #632C13",
">  c #6A2A12",
",  c #722D13",
"<  c #782F15",
"1  c #69361A",
"2  c #7D391B",
"3  c #773317",
"4  c #6C340E",
"5  c #793E21",
"6  c #6B3D20",
"7  c #59451B",
"8  c #65471C",
"9  c #734D1E",
"0  c #5D4823",
"q  c #6C4623",
"w  c #784526",
"e  c #695626",
"r  c #7A5726",
"t  c #426D2E",
"y  c #56762E",
"u  c #567332",
"i  c #6B6728",
"p  c #7E6A28",
"a  c #6B7032",
"s  c #737D42",
"d  c #971A1B",
"f  c #8A1917",
"g  c #AA1C1E",
"h  c #833C1C",
"j  c #88361A",
"k  c #91321C",
"l  c #A82621",
"z  c #B72322",
"x  c #BB3628",
"c  c #AC3D2E",
"v  c #A62520",
"b  c #C62123",
"n  c #CD362A",
"m  c #C11D23",
"M  c #8D421F",
"N  c #9C6C15",
"B  c #894725",
"V  c #984926",
"C  c #97542A",
"Z  c #8A5831",
"A  c #A44D21",
"S  c #A95728",
"D  c #B45D25",
"F  c #BC5928",
"G  c #A65D32",
"H  c #B6492D",
"J  c #866929",
"K  c #977828",
"L  c #8B7330",
"P  c #BB6426",
"I  c #B76528",
"U  c #AA6234",
"Y  c #B76735",
"T  c #AE7131",
"R  c #A67A1F",
"E  c #CC5435",
"W  c #C26C27",
"Q  c #C46D29",
"!  c #C57129",
"~  c #C97329",
"^  c #CB7A2C",
"/  c #D17D2C",
"(  c #CA7C3B",
")  c #CA6F35",
"_  c #915E44",
"`  c #906F48",
"'  c #AC7744",
"]  c #B87645",
"[  c #AB7553",
"{  c #9E7F63",
"}  c #D05A42",
"|  c #D76346",
" . c #C37D48",
".. c #D46C56",
"X. c #D27054",
"o. c #C57C66",
"O. c #5A8737",
"+. c #658633",
"@. c #6C973A",
"#. c #799D39",
"$. c #728738",
"%. c #7AA73D",
"&. c #73AA3F",
"*. c #75A242",
"=. c #BA8A17",
"-. c #8A9536",
";. c #958A36",
":. c #A68829",
">. c #BD8239",
",. c #A7963A",
"<. c #BB9838",
"1. c #A88938",
"2. c #85AC3C",
"3. c #8AAB39",
"4. c #86B13C",
"5. c #92BA3B",
"6. c #98B93B",
"7. c #9EA338",
"8. c #A9A63A",
"9. c #A1BE38",
"0. c #C48A1D",
"q. c #D4961E",
"w. c #F9B815",
"e. c #E7B715",
"r. c #D3802E",
"t. c #CA853B",
"y. c #D48432",
"u. c #DA8A35",
"i. c #D78A3A",
"p. c #DC923C",
"a. c #D3913C",
"s. c #C18C29",
"d. c #E3983E",
"f. c #D0AF37",
"g. c #D0A318",
"h. c #A7C739",
"j. c #B6C93C",
"k. c #B9D038",
"l. c #FFCA0D",
"z. c #FEC413",
"x. c #FFD713",
"c. c #CED539",
"v. c #FAD626",
"b. c #F4CD34",
"n. c #EACA31",
"m. c #9D875C",
"M. c #939546",
"N. c #A68B49",
"B. c #BA8849",
"V. c #A99846",
"C. c #B58457",
"Z. c #AD9151",
"A. c #88B341",
"S. c #93B14E",
"D. c #A7B845",
"F. c #B0A74C",
"G. c #A68767",
"H. c #B5876A",
"J. c #BA9366",
"K. c #B4906C",
"L. c #AEB36D",
"P. c #96B460",
"I. c #CD8444",
"U. c #C78549",
"Y. c #D58C4A",
"T. c #D58A44",
"R. c #DB9847",
"E. c #CB8956",
"W. c #C89958",
"Q. c #D89558",
"!. c #E49C43",
"~. c #E39C4A",
"^. c #E59C52",
"/. c #D7A54C",
"(. c #C6B94C",
"). c #CCA657",
"_. c #D7A558",
"`. c #D0B04E",
"'. c #E4A24C",
"]. c #E6A652",
"[. c #E7AA57",
"{. c #E2B853",
"}. c #C79A6B",
"|. c #D69A67",
" X c #CD956E",
".X c #E39678",
"XX c #DAA765",
"oX c #DCB469",
"OX c #CAA87C",
"+X c #DBA574",
"@X c #DBA77A",
"#X c #D3B472",
"$X c #E3AC64",
"%X c #E0A463",
"&X c #EBB66A",
"*X c #E8B569",
"=X c #EDBE7B",
"-X c #E8B773",
";X c #E4AA79",
":X c #A8C544",
">X c #B9C645",
",X c #B8C555",
"<X c #B8CF51",
"1X c #B8C56E",
"2X c #D4D946",
"3X c #D7D955",
"4X c #C9D24D",
"5X c #ECC242",
"6X c #EECF58",
"7X c #F5E44C",
"8X c #CBCF6D",
"9X c #F1D56D",
"0X c #F2E56B",
"qX c #BAA987",
"wX c #B09E80",
"eX c #CAA884",
"rX c #D9AE88",
"tX c #DCB48A",
"yX c #DAB793",
"uX c #CBAE97",
"iX c #E2B38B",
"pX c #E6B988",
"aX c #E5BC95",
"sX c #E5BD9B",
"dX c #E5BB93",
"fX c #E3A38D",
"gX c #D2B8A3",
"hX c #D7D696",
"jX c #CBCC89",
"kX c #E7C689",
"lX c #E8C797",
"zX c #EDCC8D",
"xX c #F2E98F",
"cX c #DACAB6",
"vX c #D8CBA8",
"bX c #EBCBAB",
"nX c #E7C7A3",
"mX c #E9D7A9",
"MX c #F4D6A9",
"NX c #E7D8BA",
"BX c #EDD7B8",
"VX c #EFE4B4",
"CX c #E5D9C9",
"ZX c #E2DFD7",
"AX c #F7E7C8",
"SX c #FBEDD5",
"DX c #ECE4CC",
"FX c #DBD8CF",
/* pixels */
"                          lXbXbXnXyXnXnXnXbXbXlXlX                                  ",
"                    lXnXsXyXlXtXaXrXyXnXlXyXyXaXaXlXaXpXiX+X                        ",
"                pXdXrXdXsXyXbXdXnXbXsXsX XiXdXlXaX@XiXiXrX+X+X@XiX                  ",
"            dXpXdXsXaXaX XE. XaXrXiXsXiXiX@XQ.|.+X+X+X+X|.|.|.E.|.|.                ",
"          pXpX;X+X+X XE.E. . .+X+XQ.E.|.+XiXY.Q.Y.Q.|.( I.|.|.U. .E.|.Q.            ",
"        lXdX|. .U.] S A S Y I  .I.( XXR.T.Y.T.T.T.Y.;XY.I.Q.@XI.|. .E.T.i.          ",
"      lXpXrXU.S G ' U A G E.D D ( ( i.a.u.i.%X~.Q.^.p.p.i.T.i.( I.I.( Y.Q.^.        ",
"      nXtX|.] S S S S S I I ! ! t.R.R.'.!.R.$X'.].].'.'.~.R.a.i.y.T.XXY.XX^.~.      ",
"    SXbXrXE.U.B.>.>.>.>.t.t.a.R.R./.[.[.[.].].].[.*X&X*X*X$XXXXX$X$X$X*X-X$X[.      ",
"    SXAXlXoX3X).W.W.).).).)._.oXoX*X*X-X*X{.$X*X9XkXkXkXlXlXlXlXlXlXkX8XzXkX&X(.    ",
"    xXmXlX8Xj.,.;.,.F.).)._._.XXoXoXoXoXXX`.D.>XkXlXlXlXmXmXkX8XjX8X,X<XkXMX#XD.,X  ",
"  0X3XM.N.(.6.S.L.1XD.,.8.1.1.V.#XkX#X(.8.-.3.9.4X(.J.K.nXBXOX7.%.5.h.k.<XhXhX,X8X  ",
"0X7Xc.j.-.#.%.L.hXmX8X,X2.#.3.2.jXmX8X5.%.2.5.5.6.:XS.s vXSXNXA.&.h.h.k.h.:XhX8X2Xc.",
"7X2Xk.:XS.+.y M.jXAXmXjX%.2.4.y $.S.*.O.O.%.5.h.9.5.A.S.hXSXDX*.%.h.k.h.h.A.jXhXc.c.",
"0X2X,X%.6.5.@.s vXVXS.O.@.#.%.y t t @.&.%.&.5.6.2.2.+.+.P.NX1Xy %.5.#.4.:XS.1X8X2X3X",
"  4X#.3.8.K $.u L.F.p e L i a a u t @.S.A.%.4.5.-.Z k i @.L.,XK C D.+.3.<X4X8X4X2X  ",
"  :X@.,XU d j q r l g z z z x H L #.2.4.%.@.O.@.3.V g J L V.1.x x ).<X>Xc.`./.3X    ",
"  k.  mXX.d f f d z z z b b n | E T 5.4.2.O.+.+.L l g S F t.E n | |.Y.) t.4X        ",
"      ;X| l d d d l l z b b n | | H G 7.2.+.6.-.c g z x E .......XsXfXfXnXNXCX      ",
"      ^..XuXK.H.H.H.H.o.o.....X.X.} c S -.i i w H X. XrXgXcXNXCXCXDXCXDXDXDXmX      ",
"    0X0XAXcXqXG.G.G.wXuXgXvXcXcXCXCXcXgXqX` - f n ] m.m.m.m.N.N.N.N.N.Z.F.F.F.L.    ",
"      xXxXvX` e e 7 0 a i e ` m.K.qXcXFXZXcXc g m z $ % ; 8 9 J p p L L ;.;.M.      ",
"      J.kXZ.e 8 e 7 7 e 7 7 e e M.;.J Z ` C.H x n E I R s.<.K :.:.:.:.J K :.;.N.    ",
"  G.w 3 Z `.g.0.:.0.N K 0.q.0.g.n.b.b.5X5X5X{.`././.F.,.,.<.<.f.f.f.b.n.v.v.n.{.}.  ",
"  K.` _ o e b.l.z.w.w.w.w.z.x.n.f.K r r q 0 + = - % O . - - : # o 8 C K :.n.7X7X9X  ",
"  yXrXG.; o <.x.l.z.w.z.l.e.R ; O X # @ X . X o @ # X o 1 : - X # h B 6 5 T /.6X0X  ",
"  nXuXeX_ o 9 v.l.l.l.l.0.4 # X o 1 & : % = 1 1 > : - B 2 2 : 3 h B B.] U.W.}.J.oX  ",
"  OXJ.[ w @ @ f.v.v.e.N : * @ @ - 1 , , M h C B , B G G B h V Y G G Y Y Y.W.' Z C.  ",
"    yX[ w : # J b.=.4 $ & & * @ & , B , 3 3 C h , M G S 3 > G U.U Y Y ) I.] U [     ",
"    SXbXK.` - % ; o @ & & & & @ & 3 B h , , h , , 3 C S j 2 U G j k S U C.OXyXBX    ",
"    VXVXMXkX}.C.Z q q q q 1 1 - & & , 3 , > & > , 3 2 B 2 5 C Z Z _ H.eXbXMXMXMXVX  ",
"    MXMXkX-X_.R.p.R.R./._.).XXW.B.' ' C.J.C.[ C.J.}.OXOXOXeXtXyXnXlXzXkX=X=XzXzXzX  ",
"    zXpX$XR.^ ! ! ^ / y.i.p.R.R.'.[.[.&X-X*X*X&X&X&X&X&X&X&X&X&X*X[.].].].[.&X*X=X  ",
"    =X$X_.a.^ P D P W W Q ~ ^ / r.y.u.p.p.p.p.!.!.!.!.!.!.!.!.!.!.!.!.!.'.'.'.].-X  ",
"    =X$XR.t.! P D D P P P W Q ! ~ ~ ^ / y.y.y.y.y.y.u.u.p.d.d.d.d.!.!.!.!.p.!.[.    ",
"        t.D S A S D D P P P W W Q ! ~ ~ / / / r.r.y.u.u.u.p.p.p.u.u.u.y./ y.        ",
"              j j k V A A S D D D P P P P W W Q Q Q ~ ! ~ ! ! W P D S               ",
"                            > > 3 < < 3 j j j h h h h h 2                           ",
"                                                                                    ",
"                                                                                    ",
"                                                                                    ",
"                                                                                    "
};
