/* XPM */
static char *_e7a8fc73fbb47658bf1bfb1523f605aY5Rsvjc4HmvhEmqY[] = {
/* columns rows colors chars-per-pixel */
"42 42 256 2 ",
"   c None",
".  c #161615",
"X  c #181817",
"o  c #1C1C1A",
"O  c #20201F",
"+  c #262625",
"@  c #282726",
"#  c #282826",
"$  c #2D2D2D",
"%  c #343433",
"&  c #3A3933",
"*  c #3C3C3C",
"=  c #45433A",
"-  c #49463D",
";  c gray27",
":  c #474847",
">  c #4B4A45",
",  c #4C4C4B",
"<  c #504D41",
"1  c #504F49",
"2  c #52514E",
"3  c #5A574D",
"4  c #5D5A4C",
"5  c #555552",
"6  c #585752",
"7  c #5B5A55",
"8  c #5D5D5A",
"9  c #635E4E",
"0  c #615E53",
"q  c #64604F",
"w  c #656152",
"e  c #6B6654",
"r  c #6D6854",
"t  c #63635E",
"y  c #68665C",
"u  c #6E6A5A",
"i  c #716C57",
"p  c #726D5B",
"a  c #76715E",
"s  c #7C755E",
"d  c #7F785F",
"f  c #656561",
"g  c #696965",
"h  c #6D6B63",
"j  c #6B6B68",
"k  c #6D6D69",
"l  c #6F6F6B",
"z  c #6D6D69",
"x  c #757160",
"c  c #747163",
"v  c #787360",
"b  c #797461",
"n  c #7A7560",
"m  c #7A7563",
"M  c #797564",
"N  c #787565",
"B  c #7A7664",
"V  c #7B7664",
"C  c #7A7561",
"Z  c #7D7862",
"A  c #7F7962",
"S  c #7D7864",
"D  c #7D7967",
"F  c #7D7863",
"G  c #747369",
"H  c #70706C",
"J  c #70706D",
"K  c #71716D",
"L  c #72726E",
"P  c #72726F",
"I  c #70706C",
"U  c #7C7969",
"Y  c #737370",
"T  c #747470",
"R  c #747471",
"E  c #757571",
"W  c #757572",
"Q  c #767672",
"!  c #767673",
"~  c #777774",
"^  c #767673",
"/  c #787874",
"(  c #817A60",
")  c #827B63",
"_  c #837C63",
"`  c #847C60",
"'  c #857D61",
"]  c #857E61",
"[  c #817B64",
"{  c #827C64",
"}  c #837C64",
"|  c #837D64",
" . c #837D65",
".. c #847D64",
"X. c #847D65",
"o. c #847E64",
"O. c #857E64",
"+. c #857E65",
"@. c #857F65",
"#. c #867F65",
"$. c #857E66",
"%. c #857F66",
"&. c #857F67",
"*. c #867F66",
"=. c #857E65",
"-. c #878065",
";. c #868066",
":. c #878066",
">. c #868067",
",. c #878067",
"<. c #878066",
"1. c #888166",
"2. c #888167",
"3. c #888267",
"4. c #898267",
"5. c #8A8267",
"6. c #898267",
"7. c #878168",
"8. c #888168",
"9. c #888268",
"0. c #898268",
"q. c #898269",
"w. c #8A8368",
"e. c #8B8468",
"r. c #8B8469",
"t. c #8B846A",
"y. c #8C8469",
"u. c #8C8569",
"i. c #88826C",
"p. c #8C856D",
"a. c #8C866D",
"s. c #8C8569",
"d. c #908970",
"f. c black",
"g. c black",
"h. c black",
"j. c black",
"k. c black",
"l. c black",
"z. c black",
"x. c black",
"c. c black",
"v. c black",
"b. c black",
"n. c black",
"m. c black",
"M. c black",
"N. c black",
"B. c black",
"V. c black",
"C. c black",
"Z. c black",
"A. c black",
"S. c black",
"D. c black",
"F. c black",
"G. c black",
"H. c black",
"J. c black",
"K. c black",
"L. c black",
"P. c black",
"I. c black",
"U. c black",
"Y. c black",
"T. c black",
"R. c black",
"E. c black",
"W. c black",
"Q. c black",
"!. c black",
"~. c black",
"^. c black",
"/. c black",
"(. c black",
"). c black",
"_. c black",
"`. c black",
"'. c black",
"]. c black",
"[. c black",
"{. c black",
"}. c black",
"|. c black",
" X c black",
".X c black",
"XX c black",
"oX c black",
"OX c black",
"+X c black",
"@X c black",
"#X c black",
"$X c black",
"%X c black",
"&X c black",
"*X c black",
"=X c black",
"-X c black",
";X c black",
":X c black",
">X c black",
",X c black",
"<X c black",
"1X c black",
"2X c black",
"3X c black",
"4X c black",
"5X c black",
"6X c black",
"7X c black",
"8X c black",
"9X c black",
"0X c black",
"qX c black",
"wX c black",
"eX c black",
"rX c black",
"tX c black",
"yX c black",
"uX c black",
"iX c black",
"pX c black",
"aX c black",
"sX c black",
"dX c black",
"fX c black",
"gX c black",
"hX c black",
"jX c black",
"kX c black",
"lX c black",
"zX c black",
"xX c black",
"cX c black",
"vX c black",
"bX c black",
"nX c black",
"mX c black",
"MX c black",
"NX c black",
"BX c black",
"VX c black",
"CX c black",
"ZX c black",
"AX c black",
"SX c black",
"DX c black",
"FX c black",
"GX c black",
"HX c black",
"JX c black",
"KX c black",
"LX c black",
"PX c black",
"IX c black",
"UX c black",
/* pixels */
"                                  T / / / / / / / / / / T                           ",
"                                T P k k k k k k k k k k P T                         ",
"                              T l t t t t t t t t t t t f P T                       ",
"                            T P f t t t t t t t t t t t t f P                       ",
"                            P f t t t t t t t t t t t t t t f Y                     ",
"                          T f t t t t t t t t t t t t t t t t f T                   ",
"                        T g t t t t t t t t t t t t t t t t t t g T                 ",
"                      T g t 7 t t t t f t t t t f t f t t t t 7 t g T               ",
"                    g f 8 t 7 t t 8 t 8 t t 8 t 8 t 8 t t 8 t 7 t t f f             ",
"                    , : : , : , : : , : , : : , : , : , : : , : , > : ,             ",
"                    3 0 w 0 0 0 0 0 0 w 0 0 0 0 0 0 w 0 7 0 0 0 0 w 0 7             ",
"                    ' *.e.1.*.0.e.*.>.y.1.*.1.e.*.>.e.1.*.1.e.*.>.y.1.p.    X . . O ",
"                    ' *.e.1.*.1.0.*.*.e.1.' 1.1.*.*.e.1.*.1.0.*.*.e.1.p.    + O O @ ",
"                    ( *.0.*.{ >.0.{ { 0.*.{ >.1.{ *.0.*.{ >.0.{ { 0.*.i.    * * * ; ",
"                    t t 0 y 8 t t 8 t 0 t t t t 8 t 0 t t 8 t 8 t t t t     : : : : ",
"                    : : : : : : : : : : : : : : : : : : : : : : : : : :     : : : : ",
"                    e u p u u u p u u p u u p p u u p w e p p u u p p u   ; : : : : ",
"                    ' >.e.>.*.1.0.*.*.e.1.*.1.y.*.>.>.> p e.y.*.>.y.1.d.  * * * * * ",
"                    ( i = = = = = = = = = = > >.*.*.d > u 0.0.*.*.e.1.a + $ $ $ $ $ ",
"                  P S 7 & % * * * * * * % * * >.*.*.0.e 6 u e.*.*.e.1.9 + + + + + + ",
"                  P 3 > : ; > , , , , : ; : : w _ { u t 7 8 h S *.e.1.4 + + + + + + ",
"                T f w t 8 2 8 t t t t t 2 7 8 m _ w * 8 f f t h m y.1.4 + + + + +   ",
"              T g t v U 8 5 t t t f g t 5 t t *.p & % 6 5 7 5 8 7 d s 3 + + + +     ",
"            T g t t v *.V p c V V c G 2 p p m y.4 @ % : , 2 , 2 1 p p 2 + + + $     ",
"          T j t t t c { 7.*.[ *.7.Z V 3 ( { *.0.> $ ; , t f t 8 2 y y 2 @ + + %     ",
"        T k f t t t t 7 8 t 6 t 8 8 t 6 t 6 t t & $ : , t t t f 7 : : : % +         ",
"      T P f 8 t f 8 : : > > : : : : > : : : > : % $ ; , t t t f 2 + + @ $           ",
"    : 7 2 , > , , : 0 p a p p a a p p a p p a a - $ : , t t t f , . . X             ",
"    ; ; ; ; ; ; ; ; e 1.y.1.*.0.e.*.>.y.1.*.1.y.< $ : , t t t f , X . X             ",
"    : : : : : : : ; e >.e.1.*.0.y.*.>.y.1.*.1.y.> $ : , t t t f , X . X             ",
"    : : : : : : : ; r >.>.r w e r e e r e e _ y.> $ : , t t t f , X . X             ",
"    : : : : : : : ; r 1.s + o o o o o o o + i y.> $ : , t t t f , X . X             ",
"    : : : : : : : ; e >.s + o o o o o o o @ p y.< $ : , t t t f , X . X             ",
"    : : : : : : : ; e *.*.w 9 q w 9 9 w q w ( y.< $ : , t t t f , X . X             ",
"    : : : : : : : ; e *.e.1.*.0.y.*.>.y.1.*.0.y.< $ : , t t t f , X . X             ",
"    : : : : : : : ; e *.e.>.*.1.0.*.*.e.1.*.1.y.< $ : , t t t f , X . X             ",
"    : : : : : : : ; e >.e.>.*.1.0.*.*.0.>.{ 1.y.< $ : , t t t f , X . X             ",
"    : : : : : : : ; e >.e.1.*.1.e.*.*.e.1.*.1.y.< $ : , t t t f , o o o             ",
"    , , , , , , , : w m m m a m m a m m v a m F > $ : , t t t f 6 * * *             ",
"7 5 2 7 , 7 5 2 7 , 7 5 2 7 2 7 5 2 7 2 7 2 5 7 * $ : , t t t t t                   ",
": : : : : : : : : : : : : : : : : : : : : : : : ; % ; , t t t t                     ",
"                                                    ; , t t t                       "
};
