/* XPM */
static char *_2ecde18bbb74b99ae737317c168916936Od4TD01wO2CQHz[] = {
/* columns rows colors chars-per-pixel */
"42 42 196 2 ",
"   c None",
".  c #251D0A",
"X  c #30150E",
"o  c #261A12",
"O  c #2C1C13",
"+  c #2F280B",
"@  c #322D0A",
"#  c #3D2E0C",
"$  c #39230F",
"%  c #39330B",
"&  c #3E3A0A",
"*  c #342413",
"=  c #3B2C11",
"-  c #392918",
";  c #3F3918",
":  c #3E3515",
">  c #43350B",
",  c #423D0B",
"<  c #4B3E0B",
"1  c #56380B",
"2  c #48361A",
"3  c #533818",
"4  c #593B1B",
"5  c #423222",
"6  c #4B3622",
"7  c #473926",
"8  c #503C28",
"9  c #45410B",
"0  c #4B430B",
"q  c #4E4A0C",
"w  c #52430B",
"e  c #5B450C",
"r  c #534C0D",
"t  c #5B4C0B",
"y  c #55520C",
"u  c #5B540D",
"i  c #5E5A0D",
"p  c #4D4814",
"a  c #554B13",
"s  c #5C4C16",
"d  c #5B4512",
"f  c #545113",
"g  c #5D5011",
"h  c #60430B",
"j  c #7F4F0C",
"k  c #62540C",
"l  c #635C0D",
"z  c #6B5D0D",
"x  c #6A550F",
"c  c #765E0C",
"v  c #6C4515",
"b  c #604B13",
"n  c #744913",
"m  c #635211",
"M  c #695919",
"N  c #725414",
"B  c #775B10",
"V  c #795B19",
"C  c #65620E",
"Z  c #6B640D",
"A  c #6E6A0E",
"S  c #73640C",
"D  c #7A650C",
"F  c #746C0E",
"G  c #7C6D0D",
"H  c #76710E",
"J  c #7B720E",
"K  c #7D7B0F",
"L  c #6A6212",
"P  c #736312",
"I  c #7C6116",
"U  c #776C11",
"Y  c #7B6A12",
"T  c #726A1A",
"R  c #777410",
"E  c #7B7311",
"W  c #7D7A1C",
"Q  c #7C7918",
"!  c #4E4A22",
"~  c #564225",
"^  c #5E492C",
"/  c #584429",
"(  c #55522B",
")  c #584236",
"_  c #6C4820",
"`  c #644A29",
"'  c #6A5B28",
"]  c #77592A",
"[  c #6C5637",
"{  c #6A672A",
"}  c #767128",
"|  c #7E7B28",
" . c #66643A",
".. c #716E41",
"X. c #865718",
"o. c #915F1E",
"O. c #846D0E",
"+. c #82740E",
"@. c #847B0E",
"#. c #8A7C0D",
"$. c #92710E",
"%. c #927F0C",
"&. c #846E1B",
"*. c #8E6719",
"=. c #966D17",
"-. c #857114",
";. c #827D12",
":. c #857B1C",
">. c #9E7319",
",. c #A07A0E",
"<. c #A47C1A",
"1. c #835926",
"2. c #8F6525",
"3. c #806438",
"4. c #946E36",
"5. c #817F30",
"6. c #9B7331",
"7. c #A0762D",
"8. c #937746",
"9. c #84810F",
"0. c #8B830E",
"q. c #8D8B0F",
"w. c #92830D",
"e. c #9A850C",
"r. c #938C0E",
"t. c #9A8D0E",
"y. c #95910F",
"u. c #9B930E",
"i. c #9D9B0F",
"p. c #97990E",
"a. c #838210",
"s. c #8A8412",
"d. c #868913",
"f. c #898A11",
"g. c #978814",
"h. c #8D9412",
"j. c #919312",
"k. c #9A9510",
"l. c #9B9E10",
"z. c #A48E0C",
"x. c #A3950D",
"c. c #AB930D",
"v. c #A39B0E",
"b. c #AB9C0C",
"n. c #A88A18",
"m. c #A19E10",
"M. c #AB9C14",
"N. c #A79A19",
"B. c #B29D13",
"V. c #9EA10F",
"C. c #9BA311",
"Z. c #A5A40F",
"A. c #ACA40D",
"S. c #A7AB0F",
"D. c #ACAB0E",
"F. c #B2A40C",
"G. c #B3AC0D",
"H. c #BBAE0F",
"J. c #AEB20F",
"K. c #B3B30E",
"L. c #B9B40D",
"P. c #B6BB0E",
"I. c #BBBB0D",
"U. c #A2A610",
"Y. c #AAA810",
"T. c #A6AA11",
"R. c #B3AC12",
"E. c #B3A41B",
"W. c #ADB411",
"Q. c #B6B810",
"!. c #BABA11",
"~. c #B8B714",
"^. c #9C8521",
"/. c #84833C",
"(. c #AE8B27",
"). c #C2BD0C",
"_. c #C0B50D",
"`. c #C3BB11",
"'. c #C0B717",
"]. c #C5B721",
"[. c #BEC40C",
"{. c #C5C10C",
"}. c #C4CA0C",
"|. c #CACD0A",
" X c #CAC70A",
".X c #CBC514",
"XX c #CCC327",
"oX c #8C8D4C",
"OX c #9F8452",
"+X c #909152",
"@X c #A18042",
"#X c #A58850",
"$X c #A08658",
"%X c #A28651",
"&X c #B0906A",
"*X c #E0C486",
/* pixels */
"                                                                                    ",
"                                                                                    ",
"                                                                                    ",
"                                                                                    ",
"                                    Q Q W W 5./.oX                                  ",
"                                d.s.0.#.@.@.E E | /.+X                              ",
"                            h.h.p.u.u.w.0.w.#.+.E Q /.oX                            ",
"                          h.C.T.D.Z.x.u.r.w.#.@.;.:.W } ..                B B       ",
"      ,.$.I               h.s.s.j.k.r.q.0.q.q.g.;.P d # - 7             G w c       ",
"      $.D P             d.P b d m B #.x.u.x.b.%.w > , , , =           ;.F < O.O.    ",
"      O.c S a           ;.q.p.q.s.E G A.L.G.F.+.i C R A C q !         E G t -.Y     ",
"    g.+.S c t a       j.S.[.I.W.U.V.j.u.F.F.t.H L A A Z C i !  .  P G S t e t       ",
"      P t > < k L P s.C.P.P.K.l.f.a.;.0.b.x.G k r i l C C u 0 ( ; < r               ",
"              g Z G q.D.K.J.A.i.0.H H @.z.e.z 0 r S Z z u r , ! ; +                 ",
"                  K l.K.D.u.:.M < d Z #.t.e.c 0 m ] * 6 ~ > , p p                   ",
"                  j.K.I.D.&.&X) X ` x 0.u.t.+.z ] } # 3 ` > l U {                   ",
"                  S.{.}.I.v.^.N d x #.k.u.t.#.+.G O.O.G F @.r.@.T  .                ",
"                  W.}.|.}.!.v.t.r.u.m.E.b.c.t.#.z U #.u.x.x.t.@.E {                 ",
"                  [.|. X.XXX'.F.x.M.m.E.B.c.z.#.k r g #.u.t.w.@.F M                 ",
"                  [.|.{.`.].F.w.0.@.;.z.c.z.e.D , $ % r J H J F L i                 ",
"                  I.{.).A.t.+.#.#.u < t k e 0 # . . % 0 u r r C C y f               ",
"                  P.).A.@.A r.F.F.b.z.%.S t w w w t k z z l Z J A y f               ",
"                W.I.L.y.J x.A.F.F.H.H.G.F.b.b.b.x.u.#.S r w G 0.K u f               ",
"                K.L.L.p.b.F.v.A.G.H.'.!.G.G.H.R.u.0.Z 0 + > O.@.y.k r               ",
"                Q.L.I.L._.c.S S @.#.-.2.Y U P s > # O o O 1 S F y.A r               ",
"                !.).{.{.`.B.N 2 ] ` [ ^ [ / / ^ ` / 6 5 v h r Z f.A a               ",
"                W.{.{.{.).R.n.2.8.8.$X8.*X$X%X8.^ 6 2 v X.9 < i a.l f               ",
"                W.P.{.!.Q.J.D.n.=.4 - - 8 - 7 5 o * n X.1 , , y A q q               ",
"                  U.K.P.J.J.J.S.B.(.7.1.] v 4.6.X.o.B 0 & , 9 y y 9                 ",
"                  p.D.W.J.J.J.S.U.l.N.(.<.>.=.*.I k 0 9 & , 9 q 0 9                 ",
"                  h.i.U.D.D.D.Z.l.y.q.q.K H A C y 9 & & & 9 9 9 9                   ",
"                    f.p.S.S.S.V.p.j.d.a.K F C i q 9 & & & , 9 9 ,                   ",
"                      f.V.D.D.U.i.y.q.0.K H A C C i 0 9 & , , 9                     ",
"                        f.S.G.G.G.A.D.Z.i.k.j.r.q.K A i 0 , ,                       ",
"                          f.Z.G.I.I.P.P.K.G.D.G.Z.y.J y , &                         ",
"                            9.x.A.D.K.D.D.S.S.x.q.H y & &                           ",
"                              E q.u.g.q.0.@.K H C q & %                             ",
"                                C A Z i y r q 0 & & &                               ",
"                                      % @ @ @ @                                     ",
"                                                                                    ",
"                                                                                    ",
"                                                                                    "
};
