/* XPM */
static char *_a59c8f1e3e54a12ee90dd95a037eaeapky1Ekk59vrfrEjm[] = {
/* columns rows colors chars-per-pixel */
"42 42 152 2 ",
"   c #00121E",
".  c #001623",
"X  c #001925",
"o  c #001E2B",
"O  c #02222E",
"+  c #08202A",
"@  c #032432",
"#  c #092632",
"$  c #052936",
"%  c #0A2A36",
"&  c #052A39",
"*  c #0A2D3B",
"=  c #112D3A",
"-  c #0D313E",
";  c #13323E",
":  c #18323F",
">  c #0E3443",
",  c #133543",
"<  c #193643",
"1  c #153946",
"2  c #1B3A45",
"3  c #163B49",
"4  c #1B3C4A",
"5  c #163F51",
"6  c #1C3F50",
"7  c #213E4B",
"8  c #15414E",
"9  c #1C414E",
"0  c #174252",
"q  c #1D4353",
"w  c #1F4957",
"e  c #1F4B5B",
"r  c #21414E",
"t  c #244553",
"y  c #294753",
"u  c #244956",
"i  c #294956",
"p  c #204758",
"a  c #274E5D",
"s  c #264D5E",
"d  c #244E5E",
"f  c #244F5F",
"g  c #254F5F",
"h  c #264D5C",
"j  c #244C5B",
"k  c #284C58",
"l  c #294D59",
"z  c #2A4C58",
"x  c #284C5A",
"c  c #294D5B",
"v  c #2B4C5B",
"b  c #284E5B",
"n  c #2A4E5A",
"m  c #2B4F5B",
"M  c #2C4E5A",
"N  c #2D4F5B",
"B  c #284D5D",
"V  c #294F5C",
"C  c #2A4E5C",
"Z  c #2B4F5D",
"A  c #294E5E",
"S  c #284F5E",
"D  c #2A4F5F",
"F  c #2C4D5C",
"G  c #294E5C",
"H  c #26505E",
"J  c #2A505D",
"K  c #29505F",
"L  c #2B515E",
"P  c #2A525E",
"I  c #2B535F",
"U  c #2E505C",
"Y  c #2C505E",
"T  c #2F505F",
"R  c #2C525F",
"E  c #2B505E",
"W  c #31515D",
"Q  c #244F60",
"!  c #224E60",
"~  c #284F60",
"^  c #255060",
"/  c #255061",
"(  c #265060",
")  c #265161",
"_  c #275161",
"`  c #255161",
"'  c #2B5060",
"]  c #2A5160",
"[  c #285260",
"{  c #2B5261",
"}  c #2B5062",
"|  c #285262",
" . c #2C5161",
".. c #2D5360",
"X. c #2E5260",
"o. c #2F5361",
"O. c #2D5262",
"+. c #2C5362",
"@. c #2E5262",
"#. c #295465",
"$. c #2A5464",
"%. c #2B5565",
"&. c #2A5566",
"*. c #2E5564",
"=. c #2D5765",
"-. c #2F5665",
";. c #2C5666",
":. c #2D5767",
">. c #2C5362",
",. c #2E5866",
"<. c #2E5866",
"1. c #2E5868",
"2. c #2D5968",
"3. c #315261",
"4. c #315663",
"5. c #315867",
"6. c #345A67",
"7. c #335966",
"8. c #395A67",
"9. c #325968",
"0. c #315B69",
"q. c #335A69",
"w. c #305A6A",
"e. c #315B6B",
"r. c #355B68",
"t. c #375B69",
"y. c #345B6A",
"u. c #365C69",
"i. c #355C6B",
"p. c #315C6C",
"a. c #325C6C",
"s. c #325D6D",
"d. c #335E6E",
"f. c #335E6F",
"g. c #365D6E",
"h. c #345E6E",
"j. c #345C6A",
"k. c #385E6B",
"l. c #385D6D",
"z. c #385F6E",
"x. c #395E6C",
"c. c #35616E",
"v. c #36606E",
"b. c #3C616F",
"n. c #366070",
"m. c #366171",
"M. c #376370",
"N. c #366171",
"B. c #396373",
"V. c #386272",
"C. c #3C6372",
"Z. c #436C7C",
/* pixels */
"> q q t q u x L Q Q Q Q Q Q e 0 q q % @ , 3 4 8 0 q q 0 0 8 0 q w q 0 t u w 9 t t * ",
"i.i.L Y R R *.,.g.n.*.:.&.#.#.#.:.*.> 2 7.L } { 2.f.f.f.m.M.m.m.f.c.x.i.i.i.i.i.c ; ",
"m.*.u x p j u j j w q e j j j d d H * q 5.q e d d j e d j d ! d j u i u k u k B u * ",
"B.w.u h u j x u h h e H d Q d e d } * q i.e d H ! Q ) ) d h d d x l l F J J c Y u & ",
"g.a.j v h j j j H H u H ) H H e d j & 8 5.w H d d ) ) ) ) H e ! j H k c B B h u 4 $ ",
"w.w.u j h j u u j } *.x H H e H d } - 3 y.w e d d ) H ) H e d d H J J J x u p h 6 $ ",
"N.#.j j h h Q ~ x H P J w j H H j { 3 1 y.e j j h h H e d e e H k L k u k x ~ ~ t & ",
"e.~ u j j h h h L J J J H u k k j P 1 3 y.w u x h u u j e j j H J c k U c H h ~ t @ ",
":.} ~ B L L L  . . .Y Y M i z M Y R - 9 r.c c F Z c i u B h B Y k J Y  .W  .~ ~ t % ",
"*.q , , 2 2 3 0 4 2 4 4 9 ; : 8 4 r - 3 u , , , 2 , > 3 4 2 , ; 2 9 9 , > , 6 > & @ ",
"1 > * & $ $ @ $ @ O O O O % % $ & , * @ & & % & & $ $ % $ O o $ @ @ & & $ $ * & & & ",
"i.x.B.i.k.i.i.7.5.W W ; : b.v.b.b.b.7.4.v.b.q.5.q.x.q.7.W , % b.Z.w.i.C.n.n.C.C.x.x.",
"*.w.,.{ ) L L *.*.5.W ; u 4.N W R U c J { L h h L L c u P 8 3 v.P 2.y.2.*.}  .Y *.R ",
"4.*.{ ) H h x L B c c * t R M W U J J x x x H h u x u p k - 3 ,.e e w e x B B L L *.",
"} *.} L h H L Y  .L x * t W W W c L B B x H H H x x u j j & 0 2.e d w x x x c J { =.",
"{ L H L h } B Y  .} L % r W W W L H L B U c k x H x j u u $ 1 Z.j j j H H x k H { { ",
"H h ) h B J Y Y L } F # t 8.U Y L H } R L c c x x H k w u * > Z.j j j j j u j u d d ",
"d d j h c J B B H Y F # y 8.c B L H L L J c c x x k u t k - 3 v.j h j e u x j x j e ",
"B h h ~ L c L B  .4.W % p x.B  .4.4.*.R { L Y *.H J k k k % 2 5.h h j h j k x H B h ",
"2 3 2 2 4 9 4 4 4 9 2 # 9 c 9 9 9 9 4 2 2 2 2 2 4 2 4 3 2 @ , q 3 3 6 4 3 8 3 9 3 3 ",
"o o o o o O o o o o o + @ O o o o o X X X X o O o o o O o O O @ o o o o o o o o O O ",
"u y 7 o < y r i i u y u y k c F z k y r r O 2 4.5.Z Z Y Z F Y B F c t k u y t u k k ",
"*.L y O u *.B  . .Y Z Y L L *.*.4.*.} *.y O x Z.*.*.{ *.*. . .*.}  .*. . .Y L L Y 5.",
"d x 4 @ q j u h B B B B j H H ` H H d x 4 O x 2.e d e x x j d j j j j j j p j j u j ",
"e } 9 O w j j x ~ } h ~ h } { L ) h h ~ 2 o j { j j h h h ~ B h d x H d j j j x H H ",
"d L 2 O u d j H h Q ~ ~ L L L L H ) h B 4 O u H j h h h h h B h x j e H x j j j f P ",
"` } , O u d j x Q Q ~ #.h } } L ) H d ~ 4 o x *.j h h h x h B } e H H H x u j d e f ",
"` H : O x h j j j j ~ ~ B } { H d d h B r O x Y x u Q h d h B h H H u H x H j e f f ",
"~ ~ < O u B B B B ~ B ~ B B B B h } B  .y O u L B B Q h h L } ~ H j H P H P d H H #.",
"p p < @ 9 p q 9 3 3 , 2 4 t t t 6 q q y 7 @ y u u p j p p q q j k u t t u t q t w e ",
"@ O o X o o o o o . . o o o o o o o . . . X O O @ o O O O @ O @ O O + # + # o O O O ",
"h 6 , , 6 t k u 7 7 t y t : X : 7 r 7 r t t t t y t , r k u t r 9 ; < 2 O X * 2 9 q ",
"p.N.N.N.n.e.5.3.*.5. .B Z , o F r.4.6.y.i.,.2.*.*.4.6.b.5.P  .*.5.5.5.Z # O *.f.&.2.",
"! e e ! e e p p u u e e h * O y x x d j e H H d j j w u j h x u u j u k : o Y ) e H ",
"Q Q ! Q Q j p j j j d d B * @ y x H } } L { { H j H w j x x h u h e j ~ :   L 2.e ` ",
"Q Q Q Q ! p e e x j e j v & # i x L *. .&.*.{ H e w w j h L B h p j j h %   j w.e ` ",
"h B u j j e j j B p p p u $ @ i x H J L { { } } H q e d h h h h h j j h % . L ,.! ` ",
"h B j e d ! d h v j j j u $ # i j x Y *.} L } } H e q j ) L h u h Q p h = .  .} H H ",
"x H u x j d d h p h p j p & & i u } } H H H ~ h e d q e ) ) ) j d j w h = +  .u u H ",
"B B c c u h h B B B ~ v v > @ i x } L L H x Z Z } ) H h h h B h h h h F = o 3.Z H k ",
"< 4 7 4 4 7 y t 7 t 7 t 7 = @ 7 2 4 7 4 2 7 r 7 7 7 2 < < 7 7 < 2 9 r r = + 7 9 4 : ",
"X o o o o o # @ O # @ o o o X o o o . . . . . X . . .   . X . .       X       X X + "
};
